<svg width="400" height="400" viewBox="0 0 24 24" fill="none" xmlns="http://www.w3.org/2000/svg">
<path d="M12 2C6.47715 2 2 6.47715 2 12C2 17.5228 6.47715 22 12 22C17.5228 22 22 17.5228 22 12C22 6.47715 17.5228 2 12 2ZM8 7C9.10457 7 10 7.89543 10 9C10 10.1046 9.10457 11 8 11C6.89543 11 6 10.1046 6 9C6 7.89543 6.89543 7 8 7ZM16 7C17.1046 7 18 7.89543 18 9C18 10.1046 17.1046 11 16 11C14.8954 11 14 10.1046 14 9C14 7.89543 14.8954 7 16 7ZM12 14C13.8856 14 15.6567 14.7794 17 16H7C8.34326 14.7794 10.1144 14 12 14Z" fill="#85d1d1"/>
</svg>