<svg width="400" height="400" viewBox="0 0 24 24" fill="none" xmlns="http://www.w3.org/2000/svg">
<path d="M12 2C6.47715 2 2 6.47715 2 12C2 17.5228 6.47715 22 12 22C17.5228 22 22 17.5228 22 12C22 6.47715 17.5228 2 12 2ZM12 4C16.4183 4 20 7.58172 20 12C20 16.4183 16.4183 20 12 20C7.58172 20 4 16.4183 4 12C4 7.58172 7.58172 4 12 4ZM9.5 9C9.5 9.82843 8.82843 10.5 8 10.5C7.17157 10.5 6.5 9.82843 6.5 9C6.5 8.17157 7.17157 7.5 8 7.5C8.82843 7.5 9.5 8.17157 9.5 9ZM15.5 9C15.5 9.82843 14.8284 10.5 14 10.5C13.1716 10.5 12.5 9.82843 12.5 9C12.5 8.17157 13.1716 7.5 14 7.5C14.8284 7.5 15.5 8.17157 15.5 9ZM12 17C10.5 17 9.17157 15.5 9.17157 15.5L8 14.5L10 14L12 15L14 14L16 14.5L14.8284 15.5C14.8284 15.5 13.5 17 12 17Z" fill="#888888"/>
</svg>
